<?xml version="1.0" encoding="UTF-8" standalone="no"?>
<!-- Generator: Adobe Illustrator 26.3.0, SVG Export Plug-In . SVG Version: 6.00 Build 0)  -->

<svg
   version="1.1"
   id="Livello_1"
   x="0px"
   y="0px"
   viewBox="0 0 16 16"
   xml:space="preserve"
   sodipodi:docname="logo_sagra2022_nero.svg"
   inkscape:version="1.2.1 (9c6d41e410, 2022-07-14)"
   width="16"
   height="16"
   inkscape:export-filename="logo_sagra2022_nero125.png"
   inkscape:export-xdpi="96"
   inkscape:export-ydpi="96"
   xmlns:inkscape="http://www.inkscape.org/namespaces/inkscape"
   xmlns:sodipodi="http://sodipodi.sourceforge.net/DTD/sodipodi-0.dtd"
   xmlns="http://www.w3.org/2000/svg"
   xmlns:svg="http://www.w3.org/2000/svg"><defs
   id="defs165" /><sodipodi:namedview
   id="namedview163"
   pagecolor="#ffffff"
   bordercolor="#111111"
   borderopacity="1"
   inkscape:showpageshadow="0"
   inkscape:pageopacity="0"
   inkscape:pagecheckerboard="1"
   inkscape:deskcolor="#d1d1d1"
   showgrid="false"
   inkscape:zoom="24.387327"
   inkscape:cx="-1.722206"
   inkscape:cy="7.7499268"
   inkscape:window-width="1920"
   inkscape:window-height="986"
   inkscape:window-x="-11"
   inkscape:window-y="-11"
   inkscape:window-maximized="1"
   inkscape:current-layer="Livello_1" />
<style
   type="text/css"
   id="style2">
	.st0{display:none;fill:#F4E7B2;}
	.st1{fill:none;}
	.st2{fill:url(#SVGID_1_);}
	.st3{fill:url(#SVGID_00000068651073215762355120000010621896527480697008_);}
	.st4{fill:url(#SVGID_00000021825326574649062540000014371920196957046186_);}
	.st5{fill:url(#SVGID_00000028304008157187924150000009150375918375357077_);}
	.st6{fill:url(#SVGID_00000041281238937005059610000011811588944638546582_);}
	.st7{fill:url(#SVGID_00000054982491169882810020000018338987963117007748_);}
	.st8{fill:url(#SVGID_00000024722113792688589920000006379378237844208817_);}
	.st9{fill:url(#SVGID_00000101808112756915564610000010622958650421862555_);}
	.st10{fill:url(#SVGID_00000000902324907205758330000018088470559355329955_);}
	.st11{fill:url(#SVGID_00000086658267028548685680000007180079272053017785_);}
	.st12{fill:url(#SVGID_00000039106790550843471150000013844936649143641775_);}
	.st13{fill:url(#SVGID_00000132786449056214667710000009326126874098114981_);}
	.st14{fill:url(#SVGID_00000132792858388559825040000016713396702277059200_);}
	.st15{fill:url(#SVGID_00000083073677163031568290000004232928048134358458_);}
	.st16{fill:url(#SVGID_00000069381731133854348130000009843633116371011231_);}
	.st17{fill:url(#SVGID_00000011748612463860347210000004989877045683303561_);}
	.st18{fill:url(#SVGID_00000141430831363108699790000001254297388444982427_);}
	.st19{fill:url(#SVGID_00000168114046956949367220000012567689837741223336_);}
	.st20{fill:url(#SVGID_00000046324985712720871940000002439374581487259545_);}
	.st21{fill:url(#SVGID_00000042010482598944640090000002577413601088206519_);}
</style>
<rect
   style="fill:#ffffff;stroke-width:0"
   id="rect1078"
   width="16"
   height="16"
   x="0"
   y="0" /><rect
   style="display:none;fill:#ffffff;fill-opacity:1;stroke:none;stroke-width:0;stroke-opacity:1"
   id="rect2864"
   width="125"
   height="125"
   x="0"
   y="0" /><rect
   class="st0"
   width="179.88"
   height="180"
   id="rect4"
   x="-60.110001"
   y="-27.98" />
<g
   id="g160"
   transform="matrix(0.12898025,0,0,0.12898025,-3.6082225,-3.6088674)">
	<path
   class="st1"
   d="m 66,29.84 c -0.59,0 -1.07,0.48 -1.07,1.07 v 13.64 h 2.1 V 30.87 c 0,-0.57 -0.47,-1.03 -1.03,-1.03 z"
   id="path6" />
	<path
   class="st1"
   d="m 89.91,37.4 c -0.65,0 -1.18,0.53 -1.18,1.18 0,0.65 0.53,1.18 1.18,1.18 0.65,0 1.18,-0.53 1.18,-1.18 0,-0.65 -0.53,-1.18 -1.18,-1.18 z"
   id="path8" />
	<path
   class="st1"
   d="m 73.89,37.4 c -0.65,0 -1.18,0.53 -1.18,1.18 0,0.65 0.53,1.18 1.18,1.18 0.65,0 1.18,-0.53 1.18,-1.18 0,-0.65 -0.53,-1.18 -1.18,-1.18 z"
   id="path10" />
	<path
   class="st1"
   d="m 81.92,29.84 c -0.59,0 -1.07,0.48 -1.07,1.07 v 13.64 h 2.1 V 30.87 c 0,-0.57 -0.46,-1.03 -1.03,-1.03 z"
   id="path12" />
	<path
   class="st1"
   d="m 114.41,29.84 v 0 c -0.59,0 -1.07,0.48 -1.07,1.07 v 13.64 h 2.1 V 30.87 c 0,-0.57 -0.46,-1.03 -1.03,-1.03 z"
   id="path14" />
	<path
   class="st1"
   d="m 106.15,37.4 c -0.65,0 -1.18,0.53 -1.18,1.18 0,0.65 0.53,1.18 1.18,1.18 0.65,0 1.18,-0.53 1.18,-1.18 0,-0.65 -0.53,-1.18 -1.18,-1.18 z"
   id="path16" />
	<path
   class="st1"
   d="m 98.05,29.84 c -0.59,0 -1.07,0.48 -1.07,1.07 v 13.64 h 2.1 V 30.87 c 0,-0.57 -0.46,-1.03 -1.03,-1.03 z"
   id="path18" />
	<linearGradient
   id="SVGID_1_"
   gradientUnits="userSpaceOnUse"
   x1="41.119301"
   y1="45.580502"
   x2="118.2925"
   y2="150.28169">
		<stop
   offset="0"
   style="stop-color:#D65327"
   id="stop20" />
		<stop
   offset="1"
   style="stop-color:#A11D29"
   id="stop22" />
	</linearGradient>
	<rect
   x="89.010002"
   y="107.58"
   class="st2"
   width="1.99"
   height="8.6400003"
   id="rect25"
   style="fill:#000000;fill-opacity:1" />
	
		<linearGradient
   id="SVGID_00000160905384686782678130000004152137417204743077_"
   gradientUnits="userSpaceOnUse"
   x1="43.600498"
   y1="43.751701"
   x2="120.7736"
   y2="148.4529">
		<stop
   offset="0"
   style="stop-color:#D65327"
   id="stop27" />
		<stop
   offset="1"
   style="stop-color:#A11D29"
   id="stop29" />
	</linearGradient>
	
		<rect
   x="92.830002"
   y="107.58"
   style="fill:#000000;fill-opacity:1"
   width="1.99"
   height="8.6400003"
   id="rect32" />
	
		<linearGradient
   id="SVGID_00000143600876537943850540000016658205210356782232_"
   gradientUnits="userSpaceOnUse"
   x1="46.0816"
   y1="41.922901"
   x2="123.2548"
   y2="146.6241">
		<stop
   offset="0"
   style="stop-color:#D65327"
   id="stop34" />
		<stop
   offset="1"
   style="stop-color:#A11D29"
   id="stop36" />
	</linearGradient>
	
		<rect
   x="96.660004"
   y="107.58"
   style="fill:#000000;fill-opacity:1"
   width="1.99"
   height="8.6400003"
   id="rect39" />
	
		<linearGradient
   id="SVGID_00000134954975805527952650000001060681065375639223_"
   gradientUnits="userSpaceOnUse"
   x1="33.6759"
   y1="51.066898"
   x2="110.8491"
   y2="155.7681">
		<stop
   offset="0"
   style="stop-color:#D65327"
   id="stop41" />
		<stop
   offset="1"
   style="stop-color:#A11D29"
   id="stop43" />
	</linearGradient>
	
		<rect
   x="77.519997"
   y="107.58"
   style="fill:#000000;fill-opacity:1"
   width="1.99"
   height="8.6400003"
   id="rect46" />
	
		<linearGradient
   id="SVGID_00000111187076953208028340000015225681327066712739_"
   gradientUnits="userSpaceOnUse"
   x1="38.638199"
   y1="47.409302"
   x2="115.8114"
   y2="152.1105">
		<stop
   offset="0"
   style="stop-color:#D65327"
   id="stop48" />
		<stop
   offset="1"
   style="stop-color:#A11D29"
   id="stop50" />
	</linearGradient>
	
		<rect
   x="85.18"
   y="107.58"
   style="fill:#000000;fill-opacity:1"
   width="1.99"
   height="8.6400003"
   id="rect53" />
	
		<linearGradient
   id="SVGID_00000133520674454865979030000012411102302064728455_"
   gradientUnits="userSpaceOnUse"
   x1="48.562801"
   y1="40.094101"
   x2="125.7359"
   y2="144.7953">
		<stop
   offset="0"
   style="stop-color:#D65327"
   id="stop55" />
		<stop
   offset="1"
   style="stop-color:#A11D29"
   id="stop57" />
	</linearGradient>
	
		<rect
   x="100.49"
   y="107.58"
   style="fill:#000000;fill-opacity:1"
   width="1.99"
   height="8.6400003"
   id="rect60" />
	
		<linearGradient
   id="SVGID_00000183963257043557446720000018379978190644471211_"
   gradientUnits="userSpaceOnUse"
   x1="36.157101"
   y1="49.238098"
   x2="113.3302"
   y2="153.9393">
		<stop
   offset="0"
   style="stop-color:#D65327"
   id="stop62" />
		<stop
   offset="1"
   style="stop-color:#A11D29"
   id="stop64" />
	</linearGradient>
	
		<rect
   x="81.349998"
   y="107.58"
   style="fill:#000000;fill-opacity:1"
   width="1.99"
   height="8.6400003"
   id="rect67" />
	
		<linearGradient
   id="SVGID_00000178889915024971769790000016495820188131489457_"
   gradientUnits="userSpaceOnUse"
   x1="67.023201"
   y1="26.487301"
   x2="144.1963"
   y2="131.1884">
		<stop
   offset="0"
   style="stop-color:#D65327"
   id="stop69" />
		<stop
   offset="1"
   style="stop-color:#A11D29"
   id="stop71" />
	</linearGradient>
	<polygon
   style="fill:#000000;fill-opacity:1"
   points="62.13,61.19 117.5,61.19 118.74,55.31 61.2,55.31 "
   id="polygon74" />
	
		<linearGradient
   id="SVGID_00000145037246312263575450000017168931001526081448_"
   gradientUnits="userSpaceOnUse"
   x1="74.114998"
   y1="21.260099"
   x2="151.2881"
   y2="125.9612">
		<stop
   offset="0"
   style="stop-color:#D65327"
   id="stop76" />
		<stop
   offset="1"
   style="stop-color:#A11D29"
   id="stop78" />
	</linearGradient>
	<path
   style="fill:#000000;fill-opacity:1"
   d="M 117.37,46.01 V 30.9 c 0,-1.62 -1.31,-2.92 -2.92,-2.92 -1.67,0 -3.03,1.36 -3.03,3.03 v 15.01 h -1.15 v -5.4 h -1.1 v -2.29 c 0,-1.62 -1.31,-2.92 -2.92,-2.92 v 0 c -1.67,0 -3.03,1.36 -3.03,3.03 v 2.19 h -1.1 v 5.4 h -1.1 V 30.9 c 0,-1.62 -1.31,-2.92 -2.92,-2.92 -1.67,0 -3.03,1.36 -3.03,3.03 v 15.01 h -1.1 v -5.4 h -1.1 v -2.29 c 0,-1.62 -1.31,-2.92 -2.92,-2.92 v 0 c -1.67,0 -3.03,1.36 -3.03,3.03 v 2.19 h -1.1 v 5.4 H 84.83 V 30.9 c 0,-1.62 -1.31,-2.92 -2.92,-2.92 -1.67,0 -3.03,1.36 -3.03,3.03 v 15.01 h -0.99 v -5.4 h -1.1 v -2.29 c 0,-1.62 -1.31,-2.92 -2.92,-2.92 v 0 c -1.67,0 -3.03,1.36 -3.03,3.03 v 2.19 h -1.1 v 5.4 H 68.93 V 30.9 c 0,-1.62 -1.31,-2.92 -2.92,-2.92 -1.67,0 -3.03,1.36 -3.03,3.03 v 15.01 h -2.87 l 0.82,7.38 h 58.13 l 0.83,-7.38 h -2.52 z M 67.03,44.54 h -2.1 V 30.91 c 0,-0.59 0.48,-1.07 1.07,-1.07 0.57,0 1.03,0.46 1.03,1.03 z m 6.86,-4.79 c -0.65,0 -1.18,-0.53 -1.18,-1.18 0,-0.65 0.53,-1.18 1.18,-1.18 0.65,0 1.18,0.53 1.18,1.18 0,0.66 -0.53,1.18 -1.18,1.18 z m 9.06,4.79 h -2.1 V 30.91 c 0,-0.59 0.48,-1.07 1.07,-1.07 0.57,0 1.03,0.46 1.03,1.03 z m 6.96,-4.79 c -0.65,0 -1.18,-0.53 -1.18,-1.18 0,-0.65 0.53,-1.18 1.18,-1.18 0.65,0 1.18,0.53 1.18,1.18 0,0.66 -0.53,1.18 -1.18,1.18 z m 9.17,4.79 h -2.1 V 30.91 c 0,-0.59 0.48,-1.07 1.07,-1.07 0.57,0 1.03,0.46 1.03,1.03 z m 7.07,-4.79 c -0.65,0 -1.18,-0.53 -1.18,-1.18 0,-0.65 0.53,-1.18 1.18,-1.18 0.65,0 1.18,0.53 1.18,1.18 0,0.66 -0.53,1.18 -1.18,1.18 z m 9.29,4.79 h -2.1 V 30.91 c 0,-0.59 0.48,-1.07 1.07,-1.07 v 0 c 0.57,0 1.03,0.46 1.03,1.03 z"
   id="path81" />
	
		<linearGradient
   id="SVGID_00000151523444933381664900000009614254273416533159_"
   gradientUnits="userSpaceOnUse"
   x1="54.122601"
   y1="35.996101"
   x2="131.2957"
   y2="140.6972">
		<stop
   offset="0"
   style="stop-color:#D65327"
   id="stop83" />
		<stop
   offset="1"
   style="stop-color:#A11D29"
   id="stop85" />
	</linearGradient>
	<path
   style="fill:#000000;fill-opacity:1"
   d="M 62.28,105.66 H 73.92 V 80.11 c 0,-4.44 3.6,-8.04 8.04,-8.04 0.25,0 0.49,0.02 0.73,0.04 0.07,0.01 0.14,0.01 0.21,0.02 0.14,0.02 0.27,0.04 0.41,0.06 5.06,0.93 5.14,7.02 5.14,7.02 L 88.44,84.4 H 86.9 l 0.79,3.98 0.75,1.26 -0.02,16.02 h 3.25 l -0.01,-16.1 0.74,-1.26 0.71,-3.9 h -1.4 v -5.19 c 0,-6.9 6.34,-7.15 6.34,-7.15 4.44,0 8.04,3.6 8.04,8.04 v 25.55 h 11.22 V 63.1 H 62.28 Z"
   id="path88" />
	
		<linearGradient
   id="SVGID_00000107570714038919769600000016286578309379369653_"
   gradientUnits="userSpaceOnUse"
   x1="51.0439"
   y1="38.265301"
   x2="128.2171"
   y2="142.96651">
		<stop
   offset="0"
   style="stop-color:#D65327"
   id="stop90" />
		<stop
   offset="1"
   style="stop-color:#A11D29"
   id="stop92" />
	</linearGradient>
	
		<rect
   x="104.32"
   y="107.58"
   style="fill:#000000;fill-opacity:1"
   width="1.99"
   height="8.6400003"
   id="rect95" />
	
		<linearGradient
   id="SVGID_00000129909953355598563720000015805666579989490053_"
   gradientUnits="userSpaceOnUse"
   x1="53.525002"
   y1="36.436501"
   x2="130.6982"
   y2="141.1377">
		<stop
   offset="0"
   style="stop-color:#D65327"
   id="stop97" />
		<stop
   offset="1"
   style="stop-color:#A11D29"
   id="stop99" />
	</linearGradient>
	
		<rect
   x="108.15"
   y="107.58"
   style="fill:#000000;fill-opacity:1"
   width="1.99"
   height="8.6400003"
   id="rect102" />
	
		<linearGradient
   id="SVGID_00000057847833716629340760000000226074672423365515_"
   gradientUnits="userSpaceOnUse"
   x1="56.006199"
   y1="34.6077"
   x2="133.17931"
   y2="139.3089">
		<stop
   offset="0"
   style="stop-color:#D65327"
   id="stop104" />
		<stop
   offset="1"
   style="stop-color:#A11D29"
   id="stop106" />
	</linearGradient>
	
		<rect
   x="111.98"
   y="107.58"
   style="fill:#000000;fill-opacity:1"
   width="1.99"
   height="8.6400003"
   id="rect109" />
	
		<linearGradient
   id="SVGID_00000140016228544868935820000012183261271805528762_"
   gradientUnits="userSpaceOnUse"
   x1="58.323299"
   y1="32.899799"
   x2="135.49651"
   y2="137.601">
		<stop
   offset="0"
   style="stop-color:#D65327"
   id="stop111" />
		<stop
   offset="1"
   style="stop-color:#A11D29"
   id="stop113" />
	</linearGradient>
	
		<rect
   x="115.81"
   y="107.58"
   style="fill:#000000;fill-opacity:1"
   width="1.49"
   height="8.6400003"
   id="rect116" />
	
		<linearGradient
   id="SVGID_00000182525892893922611820000004601693194478639259_"
   gradientUnits="userSpaceOnUse"
   x1="23.776501"
   y1="58.363602"
   x2="100.9496"
   y2="163.0647">
		<stop
   offset="0"
   style="stop-color:#D65327"
   id="stop118" />
		<stop
   offset="1"
   style="stop-color:#A11D29"
   id="stop120" />
	</linearGradient>
	
		<rect
   x="62.279999"
   y="107.58"
   style="fill:#000000;fill-opacity:1"
   width="1.91"
   height="8.6400003"
   id="rect123" />
	
		<linearGradient
   id="SVGID_00000112603903798767024350000006252570785070499243_"
   gradientUnits="userSpaceOnUse"
   x1="26.2325"
   y1="56.553299"
   x2="103.4057"
   y2="161.2545">
		<stop
   offset="0"
   style="stop-color:#D65327"
   id="stop125" />
		<stop
   offset="1"
   style="stop-color:#A11D29"
   id="stop127" />
	</linearGradient>
	
		<rect
   x="66.029999"
   y="107.58"
   style="fill:#000000;fill-opacity:1"
   width="1.99"
   height="8.6400003"
   id="rect130" />
	
		<linearGradient
   id="SVGID_00000047035441712565204820000013190936745927755685_"
   gradientUnits="userSpaceOnUse"
   x1="28.7136"
   y1="54.724499"
   x2="105.8868"
   y2="159.4257">
		<stop
   offset="0"
   style="stop-color:#D65327"
   id="stop132" />
		<stop
   offset="1"
   style="stop-color:#A11D29"
   id="stop134" />
	</linearGradient>
	
		<rect
   x="69.860001"
   y="107.58"
   style="fill:#000000;fill-opacity:1"
   width="1.99"
   height="8.6400003"
   id="rect137" />
	
		<linearGradient
   id="SVGID_00000077291511045836187710000011858485946623603863_"
   gradientUnits="userSpaceOnUse"
   x1="31.194799"
   y1="52.895699"
   x2="108.3679"
   y2="157.59689">
		<stop
   offset="0"
   style="stop-color:#D65327"
   id="stop139" />
		<stop
   offset="1"
   style="stop-color:#A11D29"
   id="stop141" />
	</linearGradient>
	
		<rect
   x="73.690002"
   y="107.58"
   style="fill:#000000;fill-opacity:1"
   width="1.99"
   height="8.6400003"
   id="rect144" />
	
		<linearGradient
   id="SVGID_00000054259090608075240590000006614740078644302218_"
   gradientUnits="userSpaceOnUse"
   x1="30.3528"
   y1="53.5163"
   x2="107.526"
   y2="158.2175">
		<stop
   offset="0"
   style="stop-color:#D65327"
   id="stop146" />
		<stop
   offset="1"
   style="stop-color:#A11D29"
   id="stop148" />
	</linearGradient>
	<path
   style="fill:#000000;fill-opacity:1"
   d="m 62.28,130.86 1.37,9.04 v 12.13 h 8.31 v -22.99 h -0.01 c 0,-3.07 2.49,-5.55 5.55,-5.55 1.65,0 3.13,0.73 4.15,1.87 1.02,-1.15 2.5,-1.87 4.15,-1.87 1.65,0 3.12,0.72 4.14,1.86 1.02,-1.14 2.49,-1.86 4.14,-1.86 1.65,0 3.12,0.72 4.14,1.86 1.02,-1.14 2.49,-1.86 4.14,-1.86 3.07,0 5.55,2.49 5.55,5.55 h -0.05 v 22.99 h 8.05 V 139.9 l 1.37,-9.04 v -12.73 h -55 z"
   id="path151" />
	
		<linearGradient
   id="SVGID_00000057134770582538544790000013362678302621575842_"
   gradientUnits="userSpaceOnUse"
   x1="27.605301"
   y1="55.541401"
   x2="104.7785"
   y2="160.2426">
		<stop
   offset="0"
   style="stop-color:#D65327"
   id="stop153" />
		<stop
   offset="1"
   style="stop-color:#A11D29"
   id="stop155" />
	</linearGradient>
	<path
   style="fill:#000000;fill-opacity:1"
   d="m 102.36,126.28 c -1.42,0 -2.58,1.07 -2.74,2.44 0.01,0.11 0.02,0.21 0.02,0.32 H 99.6 99.58 v 2.54 h -2.77 v -2.54 c 0,-0.11 0.01,-0.21 0.02,-0.32 -0.16,-1.37 -1.32,-2.44 -2.74,-2.44 -1.42,0 -2.6,1.08 -2.74,2.46 0.01,0.1 0.01,0.19 0.01,0.29 h -0.03 -0.04 v 2.54 h -2.76 v -2.54 c 0,-0.1 0.01,-0.2 0.01,-0.29 -0.15,-1.39 -1.32,-2.46 -2.74,-2.46 -1.49,0 -2.7,1.18 -2.75,2.65 0,0.04 0.01,0.07 0.01,0.11 H 83.05 83 v 2.54 h -2.75 v -2.54 c 0,-0.04 0,-0.07 0.01,-0.11 -0.06,-1.47 -1.27,-2.65 -2.75,-2.65 -1.52,0 -2.76,1.24 -2.76,2.76 h -0.03 v 22.99 h 30.4 v -22.99 h 0.01 c -0.01,-1.53 -1.25,-2.76 -2.77,-2.76 z"
   id="path158" />
</g>
</svg>
